PathFileType	4	(X/Y/Z)	C:/Users/beibeiliu/ov580/test_trc\sequence.20_training_dense_right.trc
DataRate	CameraRate	NumFrames	NumMarkers	Units	OrigDataRate	OrigDataStartFrame	OrigNumFrames
120	120	18	19	mm	120	295	336
Frame#	Time	ThumbCMC			ThumbMCP			ThumbIP			ThumbTip			IndexMCP			IndexPIP			IndexTip			MiddleMCP			MiddlePIP			MiddleTip			RingMCP			RingPIP			RingTip			PinkyMCP			PinkyPIP			PinkyTip			BackHand1			BackHand2			BackHand3	
		X0	Y0	Z0	X1	Y1	Z1	X2	Y2	Z2	X3	Y3	Z3	X4	Y4	Z4	X5	Y5	Z5	X6	Y6	Z6	X7	Y7	Z7	X8	Y8	Z8	X9	Y9	Z9	X10	Y10	Z10	X11	Y11	Z11	X12	Y12	Z12	X13	Y13	Z13	X14	Y14	Z14	X15	Y15	Z15	X16	Y16	Z16	X17	Y17	Z17	X18	Y18	Z18	
294	2.45	170.494	19.886	38.3537	169.555	-8.61849	26.1779	174.406	-24.7665	13.4587	182.83	-42.4623	-3.44216	177.208	14.9722	-26.5613	174.948	-4.9494	-48.0258	176.856	-24.5447	-55.7593	200.508	21.8809	-32.8422	205.247	2.27948	-55.7329	211.009	-20.3072	-68.5006	215.844	26.6018	-23.1042	224.201	12.3784	-47.3042	224.86	-4.77249	-61.3048	238.87	30.2567	-7.11397	248.764	24.6715	-24.4165	251.98	20.0384	-42.6844	211.225	47.6982	12.6874	206.681	57.1505	40.0308	183.848	49.7264	24.5303	
295	2.45833	169.678	19.8087	40.0314	171.18	-7.93855	23.0091	174.197	-25.2974	8.00189	183.225	-41.094	-7.9912	175.418	15.656	-26.586	175.903	-3.23742	-49.3718	178.219	-25.1605	-59.7532	198.562	21.7278	-32.0719	203.176	6.5523	-55.0659	209.946	-17.8617	-68.8778	218.399	25.7962	-26.0539	224.387	13.4587	-46.3353	229.854	-3.90677	-61.1957	239.57	27.6328	-12.9384	248.663	22.5084	-27.3159	252.554	18.1288	-41.8447	212.064	44.4995	14.7089	210.242	55.1852	35.6299	182.963	46.971	21.8802	
296	2.46667	173.587	20.6301	35.7818	173.619	-6.55018	19.5037	173.206	-26.1138	1.3039	182.563	-39.6181	-13.6506	176.429	17.8003	-28.0779	176.994	3.22982	-49.0549	178.44	-21.6134	-62.068	203.092	23.6914	-35.8302	204.365	8.29024	-57.9144	211.143	-15.2954	-72.8953	219.428	26.1548	-29.4506	223.16	12.6874	-50.9348	227.52	-2.62456	-62.232	240.827	27.7124	-13.814	251.099	22.4533	-25.1087	259.864	17.4755	-46.2888	214.683	43.8045	15.3522	215.853	53.4364	35.6409	185.27	48.3405	23.0132	
297	2.475	174.478	21.7449	36.1778	170.031	-5.76984	15.7806	170.974	-22.473	0.153879	179.425	-37.6479	-17.3537	179.548	21.3226	-33.7361	176.53	7.4145	-50.3944	176.898	-18.8525	-65.8869	204.859	26.4528	-39.2972	203.909	10.4477	-63.2391	213.643	-9.40617	-74.8048	221.748	28.0427	-27.8906	224.716	16.4397	-51.5762	230.372	-1.23101	-66.9286	240.86	26.8841	-12.0853	251.887	22.354	-28.9501	257.888	17.4419	-44.4642	218.619	44.9469	13.5623	212.715	52.1082	35.9598	187.608	49.4085	22.6078	
298	2.48333	172.838	22.8165	35.6123	168.897	-2.50641	15.1628	171.014	-18.0033	-2.26136	172.659	-33.6125	-18.9269	180.89	23.8666	-32.604	174.648	7.45386	-55.923	177.113	-12.7718	-66.2559	204.809	27.9533	-37.7008	205.072	14.4934	-63.2687	208.325	-7.07458	-78.974	222.884	27.3486	-30.3248	227.517	18.1036	-49.9632	228.629	-0.561695	-70.0996	245.107	26.1324	-14.164	248.882	22.3108	-30.7658	255.571	16.8217	-47.3737	221.145	43.3004	10.963	217.102	51.6596	39.1085	194.511	46.9016	21.4048	
299	2.49167	175.707	22.9424	34.9229	165.198	-2.04107	11.9439	165.586	-15.9724	-1.13887	167.472	-31.5592	-20.9247	180.276	25.913	-31.4641	176.926	13.6334	-53.4365	176.856	-7.57687	-69.0013	205.707	28.7879	-40.9842	208.241	18.1017	-61.6442	210.12	-1.40671	-79.878	223.929	28.3396	-31.4557	227.472	17.9839	-53.1636	228.681	1.97292	-70.1387	242.22	24.5732	-11.5563	250.163	20.2287	-33.9765	257.456	14.0554	-51.692	220.407	44.2694	14.2313	221.798	49.6753	35.8285	192.568	47.2864	22.4502	
300	2.5	177.049	24.0143	34.7589	163.762	-0.0275091	14.8448	159.872	-13.7653	-6.18442	160.641	-25.1695	-19.1039	180.998	28.2435	-34.278	177.239	16.2648	-54.8884	174.49	-4.02828	-72.5411	204.907	30.6874	-39.3444	203.974	21.7679	-61.2098	211.543	0.977126	-81.8979	225.254	28.4235	-29.179	227.607	20.1204	-52.1012	225.749	5.95191	-69.0001	245.037	24.0607	-16.4148	252.977	18.5968	-34.8721	255.923	15.4547	-49.4193	219.969	42.6194	10.4747	220.127	48.5642	35.6309	193.375	47.6571	22.1494	
301	2.50833	171.651	23.8901	35.3547	165.029	2.70961	12.5423	156.533	-10.2993	-4.95447	156.115	-20.9284	-24.3979	180.208	30.7714	-34.127	176.708	19.0135	-56.2312	176.147	1.01069	-75.0068	207.078	31.8477	-41.5441	205.555	22.9723	-64.3718	210.041	4.35557	-85.62	223.646	27.8932	-32.5053	225.156	21.811	-52.3639	223.521	7.91262	-73.6454	240.823	23.8262	-18.6276	249.111	18.6206	-31.7051	258.146	14.4561	-54.1827	221.678	40.9612	13.3442	221.814	48.3024	39.2776	197.726	46.6587	19.2405	
302	2.51667	175.471	24.2866	32.9808	165.117	5.54019	12.0431	156.463	-5.43648	-7.11563	154.049	-15.3776	-22.2553	179.298	32.7312	-32.3456	179.23	21.9527	-57.8966	175.509	5.49415	-77.6287	204.452	32.723	-37.7743	206.719	24.8052	-64.9362	209.148	10.8427	-87.8738	225.807	29.87	-33.0419	227.509	22.1965	-54.4901	227.242	11.2727	-74.6524	241.31	24.107	-18.3481	250.201	18.3496	-34.3763	256	14.436	-52.1647	218.779	42.2057	10.5194	219.875	46.9241	39.8992	196.121	47.6444	19.7077	
303	2.525	172.34	24.8609	33.1458	162.556	7.412	9.0477	152.423	-3.20292	-10.0221	146.959	-12.4685	-23.0649	181.421	34.4206	-32.8364	175.045	26.4567	-58.2417	173.78	14.401	-76.2421	206.116	34.1996	-42.019	201.769	28.1389	-67.6535	205.811	17.0248	-87.9765	222.846	30.0362	-29.56	227.534	24.5673	-55.2842	225.35	15.9937	-76.8437	244.265	23.5536	-20.2061	247.983	18.653	-33.7815	252.301	18.5339	-56.1385	218.049	40.7178	8.32271	219.422	45.3369	36.1	193.034	47.055	20.9323	
304	2.53333	174.013	25.1947	32.3494	162.124	9.93137	9.62309	155.013	1.66594	-10.028	147.872	-7.26928	-24.6446	177.242	35.4519	-36.6834	175.344	29.4151	-56.0434	175.092	15.9842	-79.5754	202.228	35.672	-41.757	203.344	30.1879	-65.2274	203.171	20.5614	-92.5648	220.616	30.0126	-34.7049	224.317	25.6679	-58.3426	225.052	19.5079	-75.0307	243.495	22.6811	-19.7091	246.222	18.8824	-33.094	255.093	16.989	-50.3492	219.257	40.6825	8.59341	220.601	45.4	33.9098	192.515	49.4454	21.7712	
305	2.54167	173.089	25.805	33.5745	161.139	10.8273	13.3649	153.629	4.95204	-11.5161	145.559	-2.45873	-27.9353	178.548	35.5724	-33.5628	173.879	30.7473	-55.4662	172.059	21.7737	-78.1845	201.606	35.6277	-38.5946	200.074	30.7236	-66.4836	201.789	24.4096	-89.4232	221.26	29.6103	-35.0977	222.142	26.9541	-53.3924	223.004	22.3688	-75.6564	241.772	20.4404	-15.8305	248.917	17.8142	-36.6199	250.319	19.0427	-51.5489	220.199	39.7499	12.1373	223.555	44.5351	34.3656	192.659	47.4376	22.2513	
306	2.55	170.503	26.9653	32.4346	157.698	12.3204	11.3739	147.473	6.74771	-10.1379	141.819	0.474866	-23.8532	174.86	36.9049	-36.8565	175.674	30.9123	-56.4891	173.77	24.3577	-78.729	202.268	36.0005	-40.4173	199.059	32.7443	-66.8239	203.405	27.1806	-88.8637	220.427	29.0447	-32.1148	221.903	26.4919	-54.4051	226.803	23.5243	-76.6419	238.407	21.6926	-19.6737	245.246	17.8404	-32.0406	254.911	21.7117	-52.7902	217.967	39.3516	12.7746	222.928	41.7564	37.7152	196.417	46.2014	19.3133	
307	2.55833	171.269	26.4047	31.8133	159.839	13.7869	9.96063	148.829	9.40247	-8.21946	135.064	4.78424	-27.2416	179.976	35.4606	-38.0798	171.067	31.7234	-60.1248	168.65	26.5995	-78.3298	200.657	36.4469	-42.1381	200.081	33.4401	-66.652	202.159	30.6557	-88.6158	223.433	28.9335	-33.2225	220.866	26.9199	-54.7903	224.963	25.0703	-77.4299	241.109	19.2244	-17.9696	246.359	17.987	-36.0704	251.863	22.7971	-52.8964	220.342	36.6024	9.46739	217.772	41.3325	33.0014	194.474	47.135	19.3968	
308	2.56667	173.09	26.8242	30.6882	158.49	15.0045	13.0817	147.426	10.4724	-7.27953	136.767	7.09871	-25.4007	179.583	35.6021	-35.9446	176.062	31.1748	-60.9028	172.181	28.4994	-77.2598	203.949	35.2147	-43.298	203.28	33.5923	-62.5512	204.182	31.3374	-89.2121	223.724	29.297	-34.8502	225.912	26.7379	-53.3961	223.838	25.9226	-74.3432	236.082	20.0374	-16.6282	245.895	18.1898	-33.3924	255.151	23.8808	-52.4997	219.641	36.6857	9.12403	220.448	41.7782	32.5593	193.665	45.1375	19.195	
309	2.575	173.126	26.3234	31.3403	156.314	17.0883	7.18351	144.68	13.019	-12.6855	137.621	9.16491	-25.6426	175.118	36.1062	-37.2598	175.148	33.1164	-57.4603	171.497	29.1528	-79.6174	204.179	35.2873	-39.1733	204.302	33.7571	-66.5984	206.227	32.1148	-88.8648	222.122	28.9663	-36.107	226.433	27.6493	-54.0036	228.141	26.5939	-76.8526	240.543	18.9309	-18.153	245.541	18.7922	-31.6405	254.532	23.9978	-48.2859	218.362	37.8791	12.5949	222.709	40.9745	35.416	196.207	46.1135	17.8276	
310	2.58333	170.983	26.0465	29.7127	160.524	16.0675	8.99509	144.756	13.1884	-8.00147	136.847	11.0236	-25.0693	176.831	35.8148	-37.6741	175.171	33.45	-56.0147	173.437	29.8306	-77.5349	203.586	34.3796	-40.3531	205.285	33.5985	-62.9448	203.596	34.4903	-88.8816	225	27.7443	-31.1476	223.284	27.3104	-56.3093	225.344	26.6294	-76.9612	242.596	19.3509	-18.5294	245.628	18.5619	-36.8044	256.97	23.0859	-50.9713	218.745	38.2145	9.54736	220.421	39.6435	35.1993	195.517	44.0582	18.053	
311	2.59167	174.461	26.2853	30.6667	159.007	16.4924	13.1954	149.623	14.2021	-6.49967	136.11	11.2543	-21.7538	180.266	36.0029	-35.9756	176.092	33.275	-55.3432	171.158	31.4858	-81.8727	202.344	34.7478	-42.0807	205.264	33.9684	-63.1529	206.191	34.3876	-86.5457	222.231	27.4041	-32.2895	226.515	27.1918	-56.3812	227.989	26.9093	-77.3037	242.386	17.2359	-15.4257	250.433	16.972	-32.1994	255.382	22.6092	-50.2577	220.768	35.1319	10.7394	223.546	39.2556	34.2958	197.865	43.2962	20.2665	
